<svg version="1" xmlns="http://www.w3.org/2000/svg" width="346.667" height="346.667" viewBox="0 0 260.000000 260.000000"><path d="M116.8.5c-.2.2-2.3.5-4.8.8-7 .9-23 4.6-23 5.3 0 .1 3.1 2.3 6.9 4.7 15.6 10.2 18.7 21.6 12.4 46-3.5 13.6 1 35.7 9 44.4 1.1 1.3 2.9 2.3 3.9 2.3 3.3 0 3.1-2.9-.6-8.3-4.5-6.5-6.4-15.4-6.1-29.2.3-15.6 2.1-24.8 9.5-48.5 2.2-6.9 4.2-13.8 4.6-15.3l.6-2.8-6.1.2c-3.3.1-6.2.3-6.3.4zM132.5 4.6c.7 2.7 3.2 11 5.5 18.4 6.3 20.8 8.2 30.9 8.1 44.8-.1 15.3-2 23-7.2 29.5-2.5 3.1-2.8 4.1-1.9 5.2 1.7 2 4.3 1.9 6.3-.3 2.7-3 7.7-14.7 9.1-21.3 1.5-7.2 1.3-20.9-.4-25.3-1.8-4.8-2.5-9.7-2.5-18.6 0-6.8.5-9.3 2.2-12.5 2.8-5.2 7.1-9.6 13.6-13.6 6.5-4.1 6.1-3.8 5.5-4.4-.6-.6-14-4.1-18.9-4.9-1.8-.3-7.3-.8-12.1-1.2l-8.7-.6 1.4 4.8z"/><path d="M73.5 12.9c-12.2 5.5-27.2 16.7-38 28.3C28.4 48.8 19.2 61 20.7 61c.4-.1 3.1-.7 5.8-1.4 6.6-1.7 13-1.1 18.1 1.9 6.1 3.6 10.5 10.7 14.8 24.5 3.6 11.2 7.7 17.8 15.7 25.4 7.9 7.6 18.6 13.8 22.4 13.1 1.1-.2 2.3-.4 2.8-.4.4-.1.7-.8.7-1.6s-2.6-3.1-5.7-5.1c-10.9-6.8-13.7-8.9-19-14.1C66 93 62.5 82.2 61.6 56.5c-.7-17.4-1.8-23.4-5.2-27L54 26.9l3.8.6c5.9 1 15.7 6.2 18.4 9.8 5.8 7.6 6.2 9 6.9 28.2.5 15.5.9 18.7 2.8 22.8 2 4.2 10.3 16.1 13.4 19.1 3.5 3.3 7 5.4 8.3 4.9 2.5-.9 1.5-3.3-3.5-8.7-8.6-9-13.8-19.3-15.9-31.1-1.3-7.8-.5-24.7 1.6-33.1 3.2-12.7 3.7-18.6 1.7-22.8-2.7-5.6-10.4-7.2-18-3.7zM172.8 12.6c-5.7 3-6.1 8.5-2.2 26.2 2.3 10.2 2.6 13.2 2.2 24.2-.8 18.3-4.6 28.1-16.2 40.5-4.3 4.6-5.5 7.3-4 8.8 2 2 11.1-6.5 17.7-16.7 6.3-9.6 7-12.4 7.2-30.7.2-16.1.2-16.6 3-21.8 4.8-8.7 12.2-13.7 23.1-15.7l2.9-.5-2.3 2.4c-3.1 3.3-4.2 7.6-4.7 19.2-1.3 28.9-2.2 34.5-6.7 43.1-5.1 9.7-13.1 17.2-27.5 25.8-6.5 3.9-7.2 4.7-5 6.4 3.3 2.6 12.4-1.3 22.3-9.6 8.8-7.5 13.5-14.5 17.9-26.7 6.5-18.1 10-23.6 17.2-27 4.2-2 14.2-2.3 18.7-.6 1.6.7 3.1.9 3.4.7.8-.9-8.3-12.8-15.5-20.2-10.7-11.2-22.3-19.9-35.4-26.5-6.3-3.2-11.8-3.7-16.1-1.3z"/><path d="M19.9 64.8c-4.2.5-11.6 16.8-16 35.1-1.1 4.5-1.9 8.5-1.7 8.7.2.2 2-.7 4-2.1 5.1-3.5 14.3-6.3 19.3-6 8.6.6 15.7 4.9 29.5 17.5 15.6 14.3 23.3 18.8 33.7 19.4 8.3.5 15.3-1.9 12.7-4.4-.5-.5-4.4-1.1-8.8-1.4-9.1-.6-14.9-3-24.8-10.5-12.5-9.5-18.5-17.8-25.4-35.5-2.8-7.1-5-11-8-14-4.4-4.5-10.3-7.3-14.5-6.8zM237.4 65c-3.8.8-9.1 4-12.1 7.2-2.1 2.3-4.9 7.9-9.3 18.8-6.2 15.3-16.4 26.9-31.5 35.7-6.3 3.7-8.3 4.3-17 4.9-8.7.7-10.3 1.4-8 3.7 1.6 1.7 2.3 1.8 10.3 2.1 5.8.2 14.3-2.5 20.5-6.7 2.9-1.8 9.5-7.4 14.7-12.2 20.9-19.3 31.9-22.4 47.3-13.1 3.1 1.9 5.8 3.2 6 3 .7-.7-2.9-15.4-5.4-22-3.8-10.4-8.8-20.3-10.6-21.2-1-.5-3.2-.6-4.9-.2z"/><path d="M5 110.9c-3.3.6-3.5.9-4.1 5.1-.8 5.4-.4 27.8.6 33.5.9 5.5 4.5 19.7 5.4 21.2.4.9 1.2 0 2-2.4 1.9-5.8 8.8-15.5 12.9-18.4 2-1.4 5.5-3.2 7.6-3.9 5.4-1.8 16.8-.6 26.4 2.6 12.3 4.1 19.8 5.4 31.2 5.1 8.3-.2 11.2-.7 13.8-2.2 4.5-2.7 4-3.6-1.6-2.9-6.8.8-18 .9-22.7.1-7.9-1.2-20.5-5.8-26-9.5-3.1-2.1-9.7-7.8-14.8-12.8-14-13.7-16.8-15.7-22.5-15.9-2.6-.1-6.3.1-8.2.4zM241 112.1c-1.9 1.2-8.4 6.9-14.5 12.8-12.6 12.2-19.3 16.9-28.4 20-13 4.5-22.1 5.3-37 3.6-5.9-.7-6.2.3-.8 3.2 2.3 1.2 6.1 1.8 13.2 1.9 12 .3 17.9-.7 30.5-4.9 7.8-2.5 11.2-3.1 18.5-3.2 8.1 0 9.5.3 13.7 2.7 2.5 1.6 6 4.5 7.7 6.5 2.7 3.3 8 13.1 9.3 17.2.2.8 1.7-3.7 3.3-10 2.8-10.6 3-12.7 3-30.6 0-10.5-.3-19.4-.6-19.7-.3-.4-3.7-.9-7.5-1.1-5.8-.4-7.5-.1-10.4 1.6z"/><path d="M108.7 159.4c-15.6 11.4-27.8 15.9-42.7 15.8-12.7-.1-19.5-1.5-29.8-6.3-9.4-4.3-13.8-3.7-23.7 3.1-4.9 3.4-4.9 3-.6 12.1l2.1 4.5 6.9-3.4c9.7-4.8 15.4-4.8 25.5.1 9.5 4.7 12.9 4.7 24.7.1 13-5 17.7-4.9 28.1.5 4.4 2.2 8.8 4.1 9.8 4.1 2.6 0 7.9-13.6 9.5-24.6.4-2.1.8-5 1-6.4.5-2.7-.2-6-1.3-6-.4 0-4.6 2.9-9.5 6.4zM141 157.2c0 2.4.9 7.9 2 12.3s2.2 8.8 2.4 9.7c.3.9 1.4 3.8 2.5 6.3 2.4 5.4 4.3 5.7 11 1.7 11.1-6.8 17-7.1 30.9-1.7 11.6 4.4 14.8 4.4 24.2-.1 10.2-4.9 16.7-5 26.2-.1l6.6 3.4 2.6-6.1c1.4-3.3 2.6-6.5 2.6-7 0-2.4-13.9-9.6-18.5-9.6-1.6 0-5.8 1.3-9.3 3-3.4 1.6-8 3.4-10.1 4-9.2 2.5-24.9 3-33.1 1.1-7.9-1.8-20.1-8-29.9-15-4.6-3.4-8.8-6.1-9.3-6.1-.4 0-.8 1.9-.8 4.2z"/><path d="M26.3 192.1c-2.1 1-4.6 2.5-5.7 3.3-1.8 1.5-1.8 1.6.7 5.8 1.4 2.4 3.7 5.6 5 7.3 2.4 2.8 2.6 2.9 4.4 1.3 3.3-3 10.7-5.8 15.6-5.8 3.1 0 7.6 1.1 12.4 3 9.3 3.8 12.1 3.8 19.5 0 7.1-3.6 10.7-3.7 17.5-.6 4.6 2.2 5.3 2.3 7.2 1 3.6-2.6 2.7-6.7-2.3-11.1-7.9-6.9-15.1-7.6-26.8-2.7-7.7 3.2-8.9 3.5-16.5 3.6-5 0-7.3-.6-12.5-3.2-7.5-3.9-13.2-4.5-18.5-1.9zM166.4 191.9c-9.6 4.5-14.2 13-8.5 16.1 1.2.6 3.3.2 7-1.6 6.9-3.1 9.6-3 17.3.6 7.7 3.7 11.1 3.7 18.5.4 10.5-4.7 18.7-4.3 27.7 1.3l3.8 2.5 1.7-2.3c.9-1.2 3.1-4.3 4.8-6.8l3.3-4.6-3.3-2.8c-6.3-5.5-13-5.7-23.1-.7-9.5 4.7-18.1 4.5-29.6-.8-6.9-3.2-14.3-3.6-19.6-1.3z"/><path d="M43 210.7c-4 1.5-10 4.7-10 5.4 0 2.2 14.8 15.2 25.7 22.5l8.2 5.5 4.3-4.4c2.6-2.7 6.3-5.1 9.3-6.2 7.2-2.7 12.2-6.4 14.5-11 1.9-3.8 1.9-4 .2-5.7-3.6-3.7-7.4-3.8-16.3-.7-4.6 1.6-9.4 2.9-10.7 2.9-1.3 0-5.8-1.8-10-4-7.8-4-12.5-5.4-15.2-4.3zM210.5 211.3c-1.6.7-6.1 2.7-9.8 4.6-7.7 3.8-10.7 3.8-19.4 0-8.3-3.7-17.8-1.6-16.9 3.6 1.1 5.8 5.6 10 14.5 13.5 6.8 2.6 10.3 5.1 12.1 8.4.7 1.4 1.7 2.6 2.1 2.6.4 0 4.8-2.7 9.7-6 9.8-6.5 24.2-19.4 24.2-21.6 0-1.6-6.1-4.9-10.5-5.7-1.6-.3-4.3-.1-6 .6zM117.9 230c-9.6 8.9-19.4 14.6-26.3 15.5-5.8.8-12.1.8-17.1 0l-5-.7 4 2.2c7.1 4 18.6 7.8 34.6 11.6 1.3.3 9.8.8 18.9 1 16.7.3 23.7-.4 38-4.1 6.5-1.7 26.3-9.6 25.6-10.2-.2-.2-3.5 0-7.3.5-13.9 1.6-24.2-1.9-36.7-12.5-3.8-3.2-7.7-6.4-8.7-7.1-3.6-2.7-3.7-.1-.2 6.7 3.4 6.6 3.5 7.1 2.4 11.7-1.3 5.2-7.3 14.4-9.4 14.4-1.8 0-6.1-4.7-8.6-9.5-2.9-5.5-2.7-10.2.9-17 1.7-3.1 3-6.1 3-6.6 0-2.1-3-.6-8.1 4.1z"/></svg>